<svg width="353.8" height="94" viewBox="0 0 353.8 94" xmlns="http://www.w3.org/2000/svg"><g id="svgGroup" stroke-linecap="round" fill-rule="evenodd" font-size="9pt" stroke="#000" stroke-width="0.25mm" fill="black" style="stroke:#000;stroke-width:0.25mm;fill:black"><path d="M 353.8 43.7 L 353.8 74.2 L 348.8 74.2 L 348.8 44.1 A 27.566 27.566 0 0 0 348.329 38.836 Q 347.739 35.805 346.409 33.447 A 14.228 14.228 0 0 0 344.4 30.7 Q 339.9 26.1 331.9 26.1 A 25.339 25.339 0 0 0 325.991 26.75 A 16.965 16.965 0 0 0 317.4 31.6 A 18.95 18.95 0 0 0 312.567 41.255 A 27.065 27.065 0 0 0 312.1 46.4 L 312.1 74.2 L 307.1 74.2 L 307.1 0 L 312.1 0 L 312.1 32.9 Q 314.8 27.5 320.1 24.5 A 23.223 23.223 0 0 1 327.467 22.008 A 31.032 31.032 0 0 1 332.6 21.6 A 27.236 27.236 0 0 1 339.114 22.336 A 18.768 18.768 0 0 1 348.1 27.3 A 18.381 18.381 0 0 1 352.709 35.295 Q 353.561 38.204 353.748 41.698 A 37.577 37.577 0 0 1 353.8 43.7 Z M 170.2 68.7 L 191.1 22 L 196.2 22 L 169.4 81.3 A 37.619 37.619 0 0 1 167.463 85.22 Q 166.4 87.069 165.244 88.476 A 14.64 14.64 0 0 1 162.5 91.1 A 15.837 15.837 0 0 1 153.276 93.999 A 19.266 19.266 0 0 1 153.1 94 A 19.043 19.043 0 0 1 148.183 93.38 A 17.167 17.167 0 0 1 146.4 92.8 Q 143.3 91.6 141 89.3 L 143.5 85.5 A 13.984 13.984 0 0 0 148.203 88.669 A 13.33 13.33 0 0 0 153.2 89.6 A 11.461 11.461 0 0 0 156.623 89.107 A 9.638 9.638 0 0 0 159.7 87.5 Q 161.707 85.923 163.406 82.907 A 29.629 29.629 0 0 0 164.7 80.3 L 167.5 74 L 144 22 L 149.3 22 L 170.2 68.7 Z M 0 74.2 L 0 46.8 L 1.5 46.8 A 4807.874 4807.874 0 0 0 9.512 46.794 Q 20.725 46.775 27.1 46.7 A 27.744 27.744 0 0 0 34.192 45.825 A 23.211 23.211 0 0 0 39.7 43.6 Q 46.9 39.5 48 30.8 Q 48.6 25.5 47.1 21 A 15.487 15.487 0 0 0 38.498 11.441 A 21.887 21.887 0 0 0 36.7 10.7 A 28.154 28.154 0 0 0 31.552 9.352 Q 28.281 8.8 24.4 8.8 L 1.5 8.8 A 4.84 4.84 0 0 1 1.293 8.795 Q 1.06 8.785 0.745 8.754 A 16.506 16.506 0 0 1 0.7 8.75 A 20.057 20.057 0 0 0 0.47 8.728 Q 0.15 8.7 0 8.7 L 0 4.3 A 2.369 2.369 0 0 0 0.128 4.296 Q 0.255 4.289 0.43 4.27 A 10.977 10.977 0 0 0 0.6 4.25 Q 0.924 4.21 1.116 4.202 A 2.101 2.101 0 0 1 1.2 4.2 L 25.3 4.2 A 50.243 50.243 0 0 1 31.839 4.744 Q 36.925 5.525 40.8 7.4 A 23.124 23.124 0 0 1 47.815 12.446 Q 52.534 17.539 53.1 25.4 A 36.305 36.305 0 0 1 53.206 27.724 Q 53.238 30.272 52.878 32.514 A 20.484 20.484 0 0 1 51.8 36.6 A 22.072 22.072 0 0 1 46.182 44.788 A 22.091 22.091 0 0 1 38.6 49.2 Q 32.1 51.5 25.1 51.3 L 6.7 51.3 Q 6.536 51.3 6.136 51.334 A 28.191 28.191 0 0 0 5.95 51.35 A 14.333 14.333 0 0 1 5.559 51.38 Q 5.25 51.4 5 51.4 L 5 74.2 L 0 74.2 Z M 251.6 67.9 L 253.9 63.9 A 19.635 19.635 0 0 0 257.141 66.162 Q 259.356 67.416 262.2 68.4 A 29.856 29.856 0 0 0 271.57 70.181 A 34.201 34.201 0 0 0 272.7 70.2 Q 279.863 70.2 283.655 68.063 A 10.103 10.103 0 0 0 284.4 67.6 A 7.969 7.969 0 0 0 288.007 61.832 A 10.739 10.739 0 0 0 288.1 60.4 A 8.34 8.34 0 0 0 287.77 57.998 A 6.559 6.559 0 0 0 286.1 55.2 A 11.231 11.231 0 0 0 283.001 53.137 A 14.61 14.61 0 0 0 281 52.4 A 40.361 40.361 0 0 0 279.581 52.019 Q 277.125 51.4 272.7 50.5 Q 266.4 49.4 262.7 48.1 Q 258.9 46.7 256.2 43.9 Q 253.5 41 253.5 35.9 A 12.231 12.231 0 0 1 257.553 26.569 A 16.069 16.069 0 0 1 258.7 25.6 A 16.214 16.214 0 0 1 263.846 22.901 Q 266.146 22.149 268.947 21.832 A 38.724 38.724 0 0 1 273.3 21.6 Q 278.1 21.6 283.2 23 A 25.124 25.124 0 0 1 288.239 24.883 A 21.094 21.094 0 0 1 291.2 26.7 L 288.9 30.7 A 23.414 23.414 0 0 0 282.859 27.602 A 27.081 27.081 0 0 0 281.6 27.2 Q 277.5 26 273.2 26 A 31.577 31.577 0 0 0 269.183 26.238 Q 267.198 26.493 265.578 27.023 A 12.021 12.021 0 0 0 262.2 28.7 A 9.434 9.434 0 0 0 259.813 31.161 Q 258.501 33.177 258.5 35.795 A 10.915 10.915 0 0 0 258.5 35.8 A 8.886 8.886 0 0 0 258.795 38.153 A 6.492 6.492 0 0 0 260.6 41.2 A 13.282 13.282 0 0 0 265.753 44.086 A 15.251 15.251 0 0 0 265.8 44.1 Q 268.758 45.15 273.812 46.108 A 113.411 113.411 0 0 0 274.3 46.2 A 101.063 101.063 0 0 1 278.411 46.992 Q 280.428 47.427 282.185 47.907 A 52.31 52.31 0 0 1 284.2 48.5 Q 288.1 49.9 290.5 52.6 A 9.875 9.875 0 0 1 292.764 57.095 A 14.468 14.468 0 0 1 293.1 60.3 A 12.531 12.531 0 0 1 291.792 66.069 Q 290.569 68.471 288.202 70.323 A 16.34 16.34 0 0 1 287.7 70.7 A 18.405 18.405 0 0 1 282.247 73.332 Q 278.089 74.6 272.5 74.6 A 38.227 38.227 0 0 1 263.35 73.531 A 34.443 34.443 0 0 1 260.5 72.7 Q 256.365 71.274 253.603 69.442 A 16.998 16.998 0 0 1 251.6 67.9 Z M 133.7 41.1 L 133.7 74.2 L 128.9 74.2 L 128.9 64.9 A 17.77 17.77 0 0 1 121.935 71.815 A 21.319 21.319 0 0 1 121.6 72 Q 116.7 74.6 110.1 74.6 A 29.839 29.839 0 0 1 104.614 74.126 Q 101.543 73.552 99.102 72.279 A 15.683 15.683 0 0 1 96.4 70.5 Q 91.3 66.4 91.3 59.7 A 14.62 14.62 0 0 1 92.265 54.302 A 13.332 13.332 0 0 1 96 49.1 Q 100.6 45.1 110.8 45.1 L 128.7 45.1 L 128.7 40.9 A 21.806 21.806 0 0 0 128.3 36.583 Q 127.786 34.04 126.611 32.09 A 11.378 11.378 0 0 0 124.8 29.8 Q 121.172 26.438 114.883 26.05 A 27.384 27.384 0 0 0 113.2 26 Q 108 26 103.3 27.8 A 27.498 27.498 0 0 0 98.499 30.128 A 22.295 22.295 0 0 0 95.2 32.6 L 92.7 29 Q 96.8 25.4 102.1 23.5 Q 107.5 21.6 113.6 21.6 A 30.761 30.761 0 0 1 119.417 22.115 Q 124.986 23.189 128.5 26.5 A 15.492 15.492 0 0 1 132.632 33.295 Q 133.416 35.799 133.625 38.835 A 33.108 33.108 0 0 1 133.7 41.1 Z M 74.9 74.2 L 69.9 74.2 L 69.9 0 L 74.9 0 L 74.9 74.2 Z M 212.1 74.2 L 207.1 74.2 L 207.1 0 L 212.1 0 L 212.1 74.2 Z M 238.2 74.2 L 233.2 74.2 L 233.2 22 L 238.2 22 L 238.2 74.2 Z M 128.7 58.8 L 128.7 49 L 110.9 49 A 33.492 33.492 0 0 0 107.011 49.209 Q 102.27 49.766 99.8 51.8 A 9.355 9.355 0 0 0 96.331 58.617 A 12.472 12.472 0 0 0 96.3 59.5 A 10.98 10.98 0 0 0 96.88 63.149 A 9.243 9.243 0 0 0 100.1 67.5 Q 103.132 69.894 108.137 70.377 A 27.699 27.699 0 0 0 110.8 70.5 A 22.945 22.945 0 0 0 116.596 69.798 A 18.407 18.407 0 0 0 121.9 67.5 A 17 17 0 0 0 127.832 60.761 A 21.68 21.68 0 0 0 128.7 58.8 Z M 238.6 8.1 Q 237.4 9.3 235.7 9.3 A 3.946 3.946 0 0 1 232.838 8.137 A 4.757 4.757 0 0 1 232.8 8.1 A 3.604 3.604 0 0 1 231.603 5.471 A 4.691 4.691 0 0 1 231.6 5.3 A 3.946 3.946 0 0 1 232.763 2.438 A 4.757 4.757 0 0 1 232.8 2.4 Q 234 1.2 235.7 1.2 A 4.347 4.347 0 0 1 238.477 2.199 A 5.503 5.503 0 0 1 238.6 2.3 Q 239.8 3.5 239.8 5.2 A 3.946 3.946 0 0 1 238.637 8.062 A 4.757 4.757 0 0 1 238.6 8.1 Z" vector-effect="non-scaling-stroke"/></g></svg>
